<?xml version="1.0" standalone="no"?>
<!DOCTYPE svg PUBLIC "-//W3C//DTD SVG 20010904//EN"
 "http://www.w3.org/TR/2001/REC-SVG-20010904/DTD/svg10.dtd">
<svg version="1.0" xmlns="http://www.w3.org/2000/svg"
 width="480.000000pt" height="480.000000pt" viewBox="0 0 480.000000 480.000000"
 preserveAspectRatio="xMidYMid meet">
<g transform="translate(0.000000,480.000000) scale(0.100000,-0.100000)"
fill="#000000" stroke="none">
<path d="M2195 4393 c-22 -2 -92 -13 -155 -24 -128 -22 -153 -37 -185 -110
-10 -21 -21 -39 -25 -39 -12 0 -64 -52 -77 -78 -7 -13 -13 -39 -13 -58 0 -21
-7 -38 -18 -46 -26 -18 -43 -54 -44 -91 0 -18 -4 -36 -8 -42 -5 -5 -18 -37
-29 -69 -11 -33 -25 -62 -29 -65 -32 -21 -61 -123 -62 -213 0 -37 -4 -70 -10
-73 -5 -3 -10 -1 -10 4 0 8 -6 8 -18 0 -22 -14 -46 -65 -37 -79 8 -13 -14 -42
-25 -35 -4 3 -7 -1 -7 -8 1 -6 -6 -37 -15 -67 -10 -30 -19 -77 -20 -105 -2
-27 -7 -55 -10 -61 -4 -6 -11 -39 -16 -75 -7 -58 -8 -130 -2 -452 1 -55 -1
-101 -4 -104 -7 -7 4 -54 15 -69 9 -11 21 -106 20 -156 0 -18 5 -28 14 -28 23
0 18 -17 -7 -24 l-23 -7 22 -9 c27 -11 29 -19 6 -35 -15 -11 -15 -17 -3 -59
11 -42 11 -51 -6 -89 -10 -23 -24 -48 -31 -55 -7 -7 -13 -27 -13 -43 0 -20 -5
-29 -16 -29 -8 0 -12 -5 -9 -10 3 -5 1 -10 -5 -10 -7 0 -10 -7 -6 -15 6 -17
-19 -21 -29 -5 -4 6 -11 8 -16 4 -5 -3 -7 -10 -4 -15 4 -5 -1 -12 -10 -15 -13
-6 -14 -8 -3 -15 9 -6 5 -9 -12 -9 -15 0 -30 -4 -35 -9 -9 -7 -59 -25 -151
-52 -17 -5 -39 -9 -50 -9 -14 0 -16 -2 -5 -9 19 -12 -3 -24 -29 -16 -25 8 -70
-6 -178 -56 -45 -21 -85 -47 -89 -56 -3 -10 -29 -41 -58 -69 -48 -47 -51 -53
-40 -74 7 -13 14 -19 17 -14 3 5 3 3 2 -4 -6 -22 160 -281 172 -269 6 6 12 96
14 224 2 106 12 175 22 158 3 -6 2 -41 -3 -80 -4 -38 -8 -107 -8 -152 -1 -67
2 -83 14 -83 8 0 15 -7 15 -16 0 -10 -5 -14 -16 -10 -12 5 -15 -2 -12 -42 3
-39 6 -47 23 -47 18 0 20 8 22 95 9 368 12 400 35 400 5 0 6 5 3 10 -4 6 -3
10 2 9 21 -4 34 2 27 12 -4 8 0 9 15 4 11 -3 21 -3 21 2 0 5 16 17 35 27 19
11 35 25 35 33 0 8 4 12 10 8 5 -3 6 -15 1 -28 -5 -12 -14 -35 -20 -50 l-11
-29 -21 24 -20 23 6 -40 c4 -22 11 -45 16 -52 11 -12 7 -78 -10 -178 -6 -33
-9 -145 -7 -250 l4 -190 52 -48 c72 -66 196 -160 268 -202 70 -40 71 -41 71
-17 0 9 3 51 6 92 3 41 8 121 11 178 4 56 10 105 14 107 4 3 4 24 0 47 -5 24
-4 64 0 89 5 27 5 84 0 134 -5 49 -7 92 -4 97 3 5 7 22 9 39 2 17 16 54 29 83
27 56 50 145 41 154 -3 3 -5 0 -5 -6 0 -7 -5 -12 -12 -12 -6 0 -20 -8 -31 -18
-20 -16 -20 -16 -13 8 22 80 22 80 -15 70 -19 -6 -48 -10 -66 -10 -28 0 -35
-5 -48 -36 -14 -33 -16 -35 -52 -28 -21 3 -42 10 -47 14 -11 11 119 140 142
140 9 0 30 7 45 15 16 8 38 14 50 13 12 0 31 2 42 6 17 7 18 6 3 -4 -9 -6 -15
-17 -12 -25 4 -8 1 -15 -5 -15 -6 0 -11 -4 -11 -10 0 -12 29 -2 53 18 25 22
22 -1 -8 -48 -24 -39 -14 -54 13 -18 6 9 27 20 45 23 17 4 44 16 60 27 32 23
32 20 16 -68 -6 -32 -19 -66 -29 -74 -9 -9 -16 -24 -14 -34 1 -10 -4 -48 -12
-85 -32 -150 -44 -260 -35 -323 14 -103 6 -335 -13 -391 -9 -26 -19 -90 -21
-143 l-5 -95 66 -30 c39 -18 73 -27 85 -24 12 4 19 2 19 -8 0 -15 206 -85 217
-73 3 3 7 29 7 58 1 31 6 53 14 56 11 3 12 -44 2 -93 -5 -25 2 -35 25 -35 22
0 25 5 27 38 0 20 1 44 0 52 -1 8 3 31 8 50 5 19 12 94 15 165 3 72 9 168 14
215 4 47 3 107 -2 134 -4 26 -6 50 -3 53 9 9 106 -18 128 -36 12 -10 22 -32
24 -52 2 -19 8 -45 14 -59 5 -14 10 -34 11 -45 3 -26 -19 -159 -33 -205 -7
-19 -13 -106 -15 -193 l-3 -158 47 0 c27 0 81 -2 121 -5 39 -4 72 -4 72 0 0 8
-39 107 -53 135 -10 19 -9 25 8 37 26 20 34 18 45 -11 5 -14 12 -25 15 -25 2
0 0 12 -5 26 -8 19 -6 29 4 40 13 12 17 10 33 -13 11 -16 25 -47 33 -70 7 -23
16 -40 21 -38 11 8 17 -17 11 -53 -4 -29 -2 -32 17 -29 41 6 54 47 15 47 -8 0
-14 5 -14 10 0 6 8 10 17 8 16 -3 19 9 25 84 4 48 4 120 -1 160 -7 65 -9 67
-10 24 -1 -36 -4 -47 -15 -43 -7 3 -19 0 -25 -6 -8 -8 -11 9 -11 66 0 61 -4
84 -19 105 -23 33 -38 112 -21 112 6 0 9 4 6 9 -7 11 40 32 58 25 12 -5 14
-29 12 -137 -2 -73 -2 -112 0 -87 9 107 16 150 24 150 5 0 7 -24 5 -52 l-4
-53 8 45 c5 25 14 65 21 90 7 25 14 53 15 63 3 29 16 34 93 39 l72 5 0 -26 c0
-15 -5 -32 -10 -37 -6 -6 -12 -37 -14 -70 -3 -32 -9 -120 -15 -194 -23 -301
-23 -310 13 -310 29 0 202 44 298 76 l77 25 -1 172 c-1 162 9 287 25 303 11
12 19 -23 9 -43 -5 -10 -9 -56 -9 -103 0 -47 2 -63 4 -37 3 37 8 47 19 43 8
-3 14 0 15 7 0 7 3 21 5 32 3 11 5 32 5 48 -1 20 5 30 22 36 26 10 25 2 30
331 2 161 1 175 -15 174 -13 -1 -18 6 -18 25 0 18 -3 22 -9 13 -10 -17 -21 16
-21 66 0 30 2 33 23 26 12 -4 31 -7 42 -6 11 1 34 -7 52 -18 17 -10 33 -15 35
-10 2 5 20 5 43 0 25 -6 44 -5 49 0 11 11 167 13 202 4 17 -5 22 -14 22 -44
l1 -39 -102 3 c-79 2 -101 6 -99 16 4 17 -17 30 -50 30 -27 0 -28 -2 -29 -52
0 -29 -2 -66 -4 -83 -1 -16 2 -57 7 -90 9 -49 7 -71 -6 -120 -29 -102 -46
-197 -45 -245 0 -25 0 -110 0 -190 0 -79 2 -146 4 -148 2 -2 33 12 69 32 l66
37 0 78 0 78 48 -1 47 -1 -3 -43 c-1 -23 2 -42 7 -42 5 0 25 15 45 33 30 28
36 42 42 95 3 34 11 65 15 68 5 3 9 0 9 -6 0 -6 10 -10 23 -8 18 2 24 13 34
63 7 33 14 85 17 115 11 122 19 181 27 186 5 3 9 17 9 32 0 35 10 47 40 49 32
2 129 -31 197 -68 29 -16 54 -25 57 -20 11 17 -177 176 -221 187 -12 4 -23 13
-23 21 0 8 -21 24 -47 35 -26 11 -53 26 -59 33 -7 6 -25 17 -41 23 -125 47
-172 62 -197 62 -43 0 -106 21 -106 36 0 7 -17 16 -37 19 -21 4 -48 10 -60 15
-13 5 -52 12 -88 16 -69 7 -78 13 -89 57 -7 28 -6 29 26 22 29 -7 31 -6 19 8
-7 9 -21 19 -31 22 -10 3 -36 42 -59 88 -22 45 -51 94 -64 109 -22 25 -23 33
-16 80 4 29 10 74 14 99 6 44 49 124 85 159 20 19 40 65 40 90 0 11 4 20 9 20
5 0 11 18 15 40 3 22 11 40 16 40 6 0 10 5 10 11 0 6 -7 8 -15 5 -8 -3 -22 -9
-30 -12 -20 -8 -19 9 2 121 14 78 33 133 33 97 0 -7 4 -12 8 -12 5 0 14 25 21
55 14 62 26 75 46 49 13 -18 14 -18 15 -1 0 30 20 18 20 -13 0 -39 12 -38 33
3 89 168 85 157 89 232 2 36 9 64 17 71 10 8 11 15 2 31 -6 12 -8 43 -6 69 5
44 -8 204 -20 262 -4 15 -1 22 10 22 14 0 14 4 -2 28 -10 15 -27 54 -37 87 -9
33 -26 88 -37 123 -11 34 -17 67 -14 72 3 6 1 10 -5 10 -7 0 -9 7 -6 16 3 8 2
12 -4 9 -6 -3 -10 1 -10 10 0 9 -10 31 -22 48 -19 26 -22 43 -20 90 3 72 -11
128 -38 152 -22 20 -27 7 -10 -25 7 -13 6 -19 -5 -24 -8 -3 -17 -1 -20 4 -4 7
-13 6 -25 0 -33 -18 -52 -2 -46 39 6 34 6 35 -7 12 -14 -23 -14 -23 -21 17
l-6 41 -78 25 c-106 33 -248 63 -364 75 -91 10 -322 12 -413 4z m1018 -308
c-3 -9 -8 -14 -10 -11 -3 3 -2 9 2 15 9 16 15 13 8 -4z m-526 -151 c4 3 12 1
20 -5 7 -7 34 -11 61 -10 26 0 61 -4 79 -10 35 -11 98 -68 123 -110 25 -43 44
-65 61 -71 9 -4 31 -33 49 -65 33 -59 42 -131 22 -171 -5 -9 -13 -55 -17 -102
-10 -107 -10 -120 -1 -145 7 -18 6 -18 -4 -2 -6 9 -15 15 -20 12 -4 -3 -26 15
-48 40 -35 40 -49 48 -118 66 -90 24 -225 32 -237 15 -6 -8 -10 -8 -13 0 -3 6
-15 9 -28 7 -21 -4 -24 -10 -22 -41 2 -28 6 -36 18 -34 35 6 26 -18 -15 -42
-64 -38 -154 -34 -240 11 -27 13 -28 16 -13 32 21 24 20 34 -8 60 -17 16 -30
20 -49 16 -13 -4 -28 -2 -31 3 -3 6 -40 13 -81 17 -80 8 -203 -14 -236 -42
-24 -20 -32 -16 -26 14 3 15 0 38 -5 52 -6 15 -14 60 -18 101 -6 58 -5 82 6
106 11 22 12 38 5 56 -10 25 -6 38 11 38 4 0 8 -7 8 -16 0 -8 5 -12 11 -9 7 5
5 13 -5 24 -19 20 -23 52 -5 34 12 -12 49 12 49 33 0 19 78 101 107 112 75 28
212 40 383 32 82 -4 155 2 166 13 4 4 18 0 32 -9 13 -8 26 -13 29 -10z m-1147
-505 c0 -6 -4 -7 -10 -4 -5 3 -10 11 -10 16 0 6 5 7 10 4 6 -3 10 -11 10 -16z
m1090 -73 c0 -3 -4 -8 -10 -11 -5 -3 -10 -1 -10 4 0 6 5 11 10 11 6 0 10 -2
10 -4z m-512 -93 c-10 -2 -28 -2 -40 0 -13 2 -5 4 17 4 22 1 32 -1 23 -4z m61
-19 c-12 -15 -36 -9 -36 10 0 8 9 11 24 8 18 -3 21 -7 12 -18z m106 6 c3 -5 2
-10 -4 -10 -5 0 -13 5 -16 10 -3 6 -2 10 4 10 5 0 13 -4 16 -10z m71 -14 c19
-14 19 -15 0 -22 -20 -8 -47 5 -54 24 -5 17 30 15 54 -2z m440 -7 c5 -8 8 -8
14 0 9 15 128 -3 147 -22 12 -12 12 -16 -1 -26 -13 -11 -23 -9 -59 8 -53 26
-57 26 -57 1 0 -11 -5 -20 -10 -20 -6 0 -18 9 -27 20 -10 11 -25 20 -35 20
-19 0 -31 14 -21 24 10 10 41 7 49 -5z m-193 -30 c-4 -12 0 -25 8 -30 20 -12
22 -12 47 11 27 25 28 20 3 -21 -21 -35 -13 -72 18 -84 31 -12 174 -20 270
-14 14 0 33 12 44 26 18 22 21 23 35 9 14 -14 14 -20 -4 -63 -16 -38 -26 -49
-49 -54 -46 -10 -183 -10 -252 0 -111 16 -133 36 -155 145 -10 50 -9 59 7 76
23 26 35 25 28 -1z m-383 -71 c-45 -27 -52 -22 -27 16 20 31 23 33 40 18 16
-14 15 -16 -13 -34z m532 -5 c14 -17 -3 -17 -26 0 -14 10 -16 20 -11 38 l8 24
9 -25 c5 -13 14 -30 20 -37z m-210 -49 c45 -113 81 -129 290 -128 168 1 190 9
224 77 25 48 26 49 40 28 36 -51 33 -252 -5 -294 -9 -9 -21 -23 -27 -30 -8 -8
-8 -18 -1 -35 8 -18 7 -26 -6 -39 -20 -20 -35 -10 -17 12 15 17 7 19 -21 5
-14 -8 -18 -17 -13 -34 3 -13 1 -27 -5 -30 -6 -4 -11 0 -11 8 0 9 -4 16 -10
16 -5 0 -3 -21 5 -47 13 -42 13 -49 0 -56 -8 -4 -15 -18 -15 -30 0 -13 -4 -27
-9 -32 -5 -6 -11 -21 -13 -35 -2 -18 -10 -26 -27 -28 -16 -3 -20 -6 -12 -11
10 -6 9 -12 -3 -24 -9 -8 -16 -19 -16 -22 0 -11 -61 -65 -73 -65 -7 0 -7 4 1
12 14 14 16 48 3 48 -5 0 -12 -9 -16 -19 -3 -11 -15 -23 -26 -26 -21 -7 -43
-40 -35 -54 8 -12 -25 -53 -38 -48 -7 3 -19 1 -27 -4 -12 -8 -12 -10 1 -18 12
-8 10 -12 -10 -19 -14 -5 -26 -6 -28 -1 -2 5 -13 4 -24 -2 -12 -6 -17 -17 -14
-26 4 -9 1 -22 -6 -30 -9 -11 -9 -16 1 -23 7 -4 9 -10 4 -13 -5 -3 -16 3 -23
13 -8 11 -18 16 -24 11 -17 -13 -116 -22 -116 -10 0 6 -3 8 -7 6 -16 -9 -53
12 -47 27 3 9 -3 17 -15 21 -23 7 -24 8 -25 82 -1 50 12 70 29 43 4 -7 26 -8
58 -4 52 7 81 20 73 33 -3 4 -1 13 3 20 7 10 13 11 30 1 21 -11 21 -10 9 12
-7 13 -17 26 -23 30 -13 10 -129 8 -146 -2 -6 -5 -23 -3 -36 3 -19 9 -26 8
-34 -4 -5 -8 -9 -9 -9 -3 0 14 -58 40 -67 30 -17 -16 94 -94 113 -78 5 4 2 -1
-5 -11 -9 -11 -21 -15 -35 -12 -20 5 -20 5 2 -11 25 -19 29 -39 8 -47 -7 -3
-29 13 -51 37 -31 35 -43 42 -67 40 -20 -3 -28 0 -26 8 5 15 -45 43 -94 52
-21 4 -42 15 -48 26 -5 10 -17 26 -27 35 -18 18 -43 101 -46 150 -1 17 -6 36
-11 44 -6 9 -4 18 7 26 10 7 17 16 17 20 0 16 -34 85 -42 85 -4 0 -8 5 -8 10
0 6 8 10 17 10 14 0 13 4 -6 24 -13 14 -29 22 -37 19 -8 -3 -14 0 -14 6 0 6
-9 20 -20 31 -30 30 -50 120 -37 163 14 44 51 65 76 43 25 -22 60 -33 167 -51
95 -17 220 -17 257 -1 37 17 16 -21 -43 -77 -74 -69 -85 -95 -65 -144 18 -43
19 -57 3 -47 -7 4 -8 3 -4 -5 12 -19 -4 -49 -32 -59 -34 -12 -132 -99 -132
-118 0 -18 36 -18 43 0 4 9 14 12 26 9 12 -3 18 -9 15 -14 -3 -5 2 -9 10 -9
18 0 21 -11 5 -27 -7 -7 -2 -15 15 -27 15 -9 26 -23 26 -31 0 -8 6 -15 14 -15
7 0 19 -7 26 -15 9 -11 27 -15 58 -13 42 3 46 5 49 33 3 16 5 30 6 31 1 1 71
4 155 8 143 6 152 5 152 -12 0 -18 2 -18 48 -3 55 19 64 31 31 48 -26 14 -79
17 -79 6 0 -16 -169 -6 -195 11 -32 21 -56 21 -48 0 5 -14 2 -16 -23 -10 -16
4 -31 12 -34 17 -3 5 -28 8 -55 7 -79 -1 -82 0 -82 27 0 30 29 50 53 37 22
-12 64 -3 71 16 4 8 1 23 -6 33 -11 19 -5 69 8 69 15 0 21 -14 10 -26 -12 -15
5 -28 27 -20 11 4 12 10 4 25 -9 19 -7 19 46 15 37 -2 62 1 77 10 12 8 38 16
57 18 32 3 35 0 38 -24 2 -16 7 -28 13 -28 5 0 8 10 6 22 -1 17 4 24 20 26 37
5 36 31 -4 47 -45 19 -46 19 -91 -4 -47 -23 -102 -17 -137 15 -25 23 -62 26
-114 8 -18 -6 -41 14 -41 36 0 25 48 62 72 54 14 -4 22 3 34 28 8 18 22 44 29
58 8 14 15 37 15 51 0 42 30 118 53 134 32 22 56 0 89 -81z m309 34 c-35 -28
-57 -22 -24 6 15 13 32 22 37 18 5 -3 -1 -13 -13 -24z m-731 12 c13 -8 13 -10
-2 -10 -9 0 -20 5 -23 10 -8 13 5 13 25 0z m229 -51 c-6 -17 -24 -36 -40 -44
-33 -18 -152 -20 -248 -5 -36 6 -80 13 -98 16 -40 6 -52 31 -15 32 15 0 34 -6
42 -13 20 -17 120 -31 120 -16 0 7 20 9 58 5 65 -7 78 -3 143 52 36 30 45 34
47 20 2 -10 -2 -31 -9 -47z m-652 -296 c-3 -10 -5 -2 -5 17 0 19 2 27 5 18 2
-10 2 -26 0 -35z m473 -150 c0 -5 -8 -17 -17 -28 -14 -18 -15 -18 -9 -2 3 10
6 23 6 28 0 5 5 9 10 9 6 0 10 -3 10 -7z m50 -423 c0 -5 -2 -10 -4 -10 -3 0
-8 5 -11 10 -3 6 -1 10 4 10 6 0 11 -4 11 -10z m50 -9 c0 -9 -24 -21 -43 -21
-6 0 -2 7 9 15 22 17 34 19 34 6z m660 -210 c0 -6 -4 -13 -10 -16 -5 -3 -10 1
-10 9 0 9 5 16 10 16 6 0 10 -4 10 -9z m-54 -56 c-21 -16 -20 -25 3 -25 11 0
21 9 24 21 8 32 27 13 27 -28 0 -32 -2 -35 -25 -31 -30 6 -34 -7 -5 -15 13 -3
20 -14 20 -29 0 -13 5 -29 11 -35 22 -22 -8 -203 -43 -268 -9 -16 -39 -53 -67
-82 -49 -50 -64 -83 -38 -83 6 0 4 -5 -5 -11 -19 -11 -24 -29 -8 -29 12 0 60
52 60 66 0 6 9 19 20 29 11 10 20 23 20 29 0 6 28 40 60 76 49 53 62 62 70 50
13 -20 12 -39 -1 -20 -7 11 -9 5 -5 -25 10 -77 9 -210 -2 -264 -7 -29 -9 -57
-6 -62 10 -17 -10 -9 -33 13 l-23 22 -28 -26 c-15 -14 -47 -36 -72 -48 -37
-19 -54 -22 -106 -17 -49 5 -63 3 -68 -8 -3 -8 -11 -15 -17 -15 -7 0 -5 8 6
20 17 19 17 20 1 20 -9 0 -14 5 -11 10 5 7 11 8 19 1 15 -13 35 0 40 26 10 51
30 103 40 103 6 0 3 7 -6 16 -15 16 -19 16 -53 0 -57 -27 -201 -32 -310 -11
-101 20 -188 46 -234 69 -16 9 -35 16 -41 16 -23 0 -8 -35 31 -72 l41 -39 -36
6 -36 7 0 -46 c0 -51 -7 -55 -61 -32 -60 25 -92 78 -105 174 -3 29 -11 52 -16
52 -6 0 -8 -9 -5 -20 3 -11 1 -20 -4 -20 -11 0 -11 -5 -13 172 0 80 2 144 6
142 4 -3 23 -31 43 -64 38 -63 47 -72 44 -42 -1 9 0 20 1 25 4 12 7 26 9 37 0
5 13 21 27 35 18 18 24 33 20 48 -4 19 -1 22 27 21 18 -1 37 -2 43 -2 16 -3
99 -70 100 -82 1 -5 2 -15 3 -22 0 -6 8 -3 16 8 12 15 16 16 24 5 6 -9 32 -14
84 -15 41 0 79 -4 82 -8 4 -4 23 5 42 19 34 26 31 46 -6 36 -9 -2 -25 3 -36
11 -20 15 -20 15 3 16 12 0 22 6 22 13 0 9 20 12 75 11 79 -1 100 -8 75 -25
-11 -8 -9 -9 10 -4 14 4 31 15 39 26 7 10 19 19 25 19 6 0 5 -4 -3 -9 -9 -6
-10 -11 -2 -15 12 -8 32 33 24 47 -2 4 9 12 26 18 17 6 29 15 26 19 -3 5 -1
12 5 15 8 5 7 11 -1 22 -10 12 -10 16 2 24 23 15 34 10 13 -6 -18 -14 -18 -14
9 -15 16 0 30 7 33 15 4 10 13 13 25 10 11 -4 19 -2 19 4 0 18 44 63 49 50 2
-7 -4 -18 -13 -24z m437 -211 c11 -11 -3 -24 -18 -18 -8 4 -12 10 -9 15 6 11
18 12 27 3z m-1895 -195 c13 0 13 -2 -3 -8 -11 -4 -23 -21 -26 -37 l-7 -29 -1
32 c-1 35 10 74 17 55 2 -7 11 -12 20 -13z m-173 1 c3 -5 -1 -10 -9 -10 -8 0
-18 5 -21 10 -3 6 1 10 9 10 8 0 18 -4 21 -10z m8 -41 c-5 -5 -20 -5 -33 -2
l-25 7 25 6 c28 8 46 2 33 -11z m2297 6 c8 -2 21 -4 28 -4 6 -1 12 -6 12 -11
0 -6 -19 -9 -47 -7 -36 4 -49 9 -52 22 -2 14 1 17 20 11 13 -4 31 -9 39 -11z
m-2300 -44 c-1 -52 -50 -75 -50 -23 0 16 3 31 6 34 7 7 44 -2 44 -11z m-550
-15 c0 -24 -12 -46 -21 -40 -15 9 -10 54 6 54 8 0 15 -6 15 -14z m687 -83 c-2
-21 -4 -6 -4 32 0 39 2 55 4 38 2 -18 2 -50 0 -70z m2329 -50 c-10 -10 -19 5
-10 18 6 11 8 11 12 0 2 -7 1 -15 -2 -18z m-581 -97 c4 -34 3 -76 -2 -93 l-8
-32 -31 24 c-31 24 -32 27 -33 109 l-1 84 34 -16 c33 -15 35 -19 41 -76z m445
83 c0 -10 -4 -11 -62 -13 -24 -1 -38 3 -38 10 0 8 18 12 50 12 28 1 50 -3 50
-9z m-901 -13 c-2 -2 -18 -7 -34 -10 l-30 -6 30 14 c26 12 46 14 34 2z m1023
-43 c-2 -27 -9 -56 -13 -65 -5 -9 -9 -27 -10 -40 0 -13 -3 -17 -6 -9 -7 17 17
161 27 161 4 0 5 -21 2 -47z m-132 17 c0 -5 -9 -10 -20 -10 -11 0 -20 5 -20
10 0 6 9 10 20 10 11 0 20 -4 20 -10z m-60 -4 c0 -2 -9 -6 -20 -9 -11 -3 -20
-1 -20 4 0 5 9 9 20 9 11 0 20 -2 20 -4z m-2325 -41 c11 -1 26 -3 33 -4 13 -1
17 -41 3 -41 -5 0 -25 7 -45 15 -23 10 -36 11 -36 5 0 -6 -4 -8 -10 -5 -5 3
-10 15 -10 26 0 17 4 19 23 13 12 -4 31 -8 42 -9z m205 -36 c0 -21 -5 -39 -10
-39 -6 0 -9 20 -8 45 2 54 18 49 18 -6z m2101 1 c5 0 9 -4 9 -10 0 -5 -7 -10
-15 -10 -11 0 -15 10 -14 38 2 30 3 32 6 10 2 -16 9 -28 14 -28z m57 -1 c-21
-13 -28 -11 -28 11 0 10 8 23 18 29 14 8 18 6 20 -11 2 -11 -2 -25 -10 -29z
m-1798 9 c0 -11 -7 -18 -20 -18 -13 0 -20 7 -20 18 0 11 7 18 20 18 13 0 20
-7 20 -18z m54 6 c19 -18 12 -34 -14 -34 -22 0 -34 15 -26 35 7 19 21 19 40
-1z m171 -76 c4 -40 7 -100 7 -133 1 -56 1 -58 10 -25 6 19 7 50 5 68 -4 22
-2 30 5 26 10 -7 5 -147 -9 -215 -10 -50 -22 -31 -18 29 l4 57 -9 -50 c-27
-139 -29 -140 -23 -20 4 66 6 168 6 228 0 59 3 107 7 107 4 0 11 -33 15 -72z
m-750 22 c3 -5 -3 -10 -14 -10 -11 0 -23 5 -26 10 -3 6 3 10 14 10 11 0 23 -4
26 -10z m1374 -13 c-2 -2 -41 -22 -86 -45 -86 -44 -126 -55 -103 -27 7 9 20
13 29 10 9 -2 48 13 86 34 39 21 72 37 74 35 2 -2 2 -5 0 -7z m-1209 -12 c0
-8 -4 -15 -10 -15 -5 0 -10 7 -10 15 0 8 5 15 10 15 6 0 10 -7 10 -15z m420 5
c0 -5 -6 -10 -14 -10 -8 0 -18 5 -21 10 -3 6 3 10 14 10 12 0 21 -4 21 -10z
m-660 -16 c0 5 6 3 14 -3 9 -8 15 -8 18 -2 1 6 14 8 27 4 24 -6 24 -7 17 -102
-8 -119 -13 -141 -37 -141 -29 0 -31 15 -18 111 6 49 9 92 6 95 -3 4 -9 -17
-13 -45 -3 -28 -10 -48 -15 -46 -4 3 -10 -14 -12 -37 -2 -24 -4 9 -5 72 -1 77
1 110 8 100 5 -8 10 -11 10 -6z m2517 -41 c-3 -10 -5 -4 -5 12 0 17 2 24 5 18
2 -7 2 -21 0 -30z m-2279 -70 c-3 -54 -3 -79 -1 -55 2 23 8 42 12 42 4 0 6
-15 4 -32 -9 -77 -15 -98 -24 -92 -6 3 -13 -4 -16 -17 -6 -22 -7 -22 -14 -3
-4 11 -1 67 7 125 7 57 14 110 14 117 0 6 5 12 11 12 8 0 10 -30 7 -97z m382
88 c0 6 10 9 23 7 20 -3 22 -9 25 -68 1 -36 -1 -92 -5 -125 -7 -55 -10 -60
-33 -60 -17 0 -26 7 -31 25 l-7 25 -2 -25 c-2 -21 -4 -19 -10 10 l-7 35 -2
-32 c0 -18 -6 -33 -12 -33 -9 0 -6 116 6 225 3 27 2 26 30 15 17 -6 25 -6 25
1z m775 -40 c-3 -6 -14 -11 -23 -11 -15 1 -15 2 2 15 21 16 32 13 21 -4z m395
-10 c-1 -21 -50 -43 -50 -22 0 24 13 38 31 34 10 -3 19 -8 19 -12z m55 -1 c10
-17 -14 -38 -35 -33 -22 6 -22 6 -14 27 7 18 39 22 49 6z m662 -22 c-3 -8 -6
-5 -6 6 -1 11 2 17 5 13 3 -3 4 -12 1 -19z m-99 -37 c-2 -11 -15 -16 -38 -17
-19 -1 -43 -5 -52 -9 -14 -6 -18 -2 -18 15 0 14 5 20 13 17 7 -3 26 1 42 8 36
14 57 9 53 -14z m-578 -11 c0 -5 -9 -10 -20 -10 -11 0 -20 5 -20 10 0 6 9 10
20 10 11 0 20 -4 20 -10z m-58 -54 c5 -7 8 -7 8 2 0 6 12 12 26 12 l27 0 -6
-67 c-4 -38 -7 -94 -7 -125 l0 -58 -56 4 c-30 2 -57 6 -59 8 -4 4 14 220 20
235 5 14 35 6 47 -11z m623 15 c7 -12 -12 -24 -25 -16 -11 7 -4 25 10 25 5 0
11 -4 15 -9z m-1225 -41 c0 -5 -4 -10 -10 -10 -5 0 -10 5 -10 10 0 6 5 10 10
10 6 0 10 -4 10 -10z m-1 -53 c-8 -8 -25 -19 -38 -26 -20 -11 -22 -11 -19 6 2
10 9 17 16 16 6 -2 16 7 23 18 7 15 14 18 21 11 8 -8 6 -15 -3 -25z m-972 -59
c-3 -8 -6 -5 -6 6 -1 11 2 17 5 13 3 -3 4 -12 1 -19z m950 -53 c-6 -51 -17
-56 -17 -7 0 23 5 42 10 42 6 0 9 -15 7 -35z m-360 -72 c-3 -10 -5 -2 -5 17 0
19 2 27 5 18 2 -10 2 -26 0 -35z m-199 -32 c21 4 42 -2 42 -12 0 -13 -92 -8
-102 6 -12 17 2 24 28 15 13 -5 28 -9 32 -9z m232 -37 c0 -8 -5 -12 -10 -9 -6
4 -8 11 -5 16 9 14 15 11 15 -7z m-196 -23 c3 -4 3 -11 0 -14 -8 -7 -44 4 -44
14 0 12 37 12 44 0z m502 -58 c-10 -10 -19 5 -10 18 6 11 8 11 12 0 2 -7 1
-15 -2 -18z"/>
<path d="M1897 2833 c-4 -3 -7 -11 -7 -17 0 -6 5 -5 12 2 6 6 9 14 7 17 -3 3
-9 2 -12 -2z"/>
<path d="M2390 2630 c0 -5 5 -10 10 -10 6 0 10 5 10 10 0 6 -4 10 -10 10 -5 0
-10 -4 -10 -10z"/>
<path d="M2690 2605 c0 -18 9 -28 35 -41 19 -9 33 -21 32 -27 -1 -7 11 -13 26
-15 16 -2 31 -10 34 -18 4 -11 9 -12 19 -3 20 16 17 42 -6 72 -18 22 -25 25
-45 17 -17 -6 -25 -6 -25 1 0 6 -4 8 -8 5 -5 -3 -18 4 -30 14 -27 26 -32 25
-32 -5z"/>
<path d="M2595 2430 c-3 -5 1 -10 9 -10 8 0 18 5 21 10 3 6 -1 10 -9 10 -8 0
-18 -4 -21 -10z"/>
<path d="M2195 2381 c-3 -5 -1 -12 5 -16 5 -3 10 1 10 9 0 18 -6 21 -15 7z"/>
<path d="M2670 2225 c0 -8 5 -15 10 -15 6 0 10 7 10 15 0 8 -4 15 -10 15 -5 0
-10 -7 -10 -15z"/>
<path d="M2720 1800 c-12 -8 -11 -10 8 -10 12 0 22 5 22 10 0 13 -11 13 -30 0z"/>
<path d="M2540 1731 c0 -8 -8 -20 -17 -27 -16 -12 -16 -13 -2 -14 25 0 45 28
31 42 -9 9 -12 9 -12 -1z"/>
<path d="M2966 1377 c-3 -12 -5 -40 -5 -62 l2 -40 7 40 c4 22 10 47 14 56 4
10 3 20 -2 23 -5 3 -12 -4 -16 -17z"/>
<path d="M1995 1310 c-9 -14 0 -23 26 -25 13 -1 19 4 17 14 -4 19 -33 27 -43
11z"/>
<path d="M2732 1190 c0 -14 2 -19 5 -12 2 6 2 18 0 25 -3 6 -5 1 -5 -13z"/>
<path d="M1753 905 c0 -22 2 -30 4 -17 2 12 2 30 0 40 -3 9 -5 -1 -4 -23z"/>
<path d="M1350 2370 c0 -5 5 -10 10 -10 6 0 10 5 10 10 0 6 -4 10 -10 10 -5 0
-10 -4 -10 -10z"/>
<path d="M1527 1623 c-4 -3 -7 -13 -7 -22 1 -13 3 -13 11 2 11 19 8 33 -4 20z"/>
<path d="M3899 1338 c-2 -3 -7 -79 -10 -128 0 -8 -4 -28 -9 -45 -5 -16 -10
-49 -13 -73 -5 -42 -5 -43 14 -26 10 9 45 51 78 94 l60 77 -52 51 c-47 46 -63
58 -68 50z"/>
<path d="M3655 910 c-1 -3 -6 -21 -10 -40 l-7 -35 31 29 c36 34 40 55 10 53
-11 -1 -22 -4 -24 -7z"/>
<path d="M3492 750 c0 -14 2 -19 5 -12 2 6 2 18 0 25 -3 6 -5 1 -5 -13z"/>
<path d="M2108 710 c2 -16 9 -30 14 -30 6 0 7 7 4 16 -3 9 -6 22 -6 30 0 8 -4
14 -8 14 -5 0 -7 -13 -4 -30z"/>
<path d="M3132 720 c0 -14 2 -19 5 -12 2 6 2 18 0 25 -3 6 -5 1 -5 -13z"/>
<path d="M3127 651 c-9 -45 -9 -111 1 -111 20 0 41 27 42 55 3 49 1 57 -14 52
-10 -4 -16 2 -18 16 -3 17 -5 15 -11 -12z"/>
<path d="M2411 494 c0 -11 3 -14 6 -6 3 7 2 16 -1 19 -3 4 -6 -2 -5 -13z"/>
<path d="M2441 414 c0 -11 3 -14 6 -6 3 7 2 16 -1 19 -3 4 -6 -2 -5 -13z"/>
</g>
</svg>
